#N canvas 0 37 1600 790.062 10;
#X obj 454 251 phasor~ 12.5;
#X obj 454 74 openpanel;
#X obj 454 121 soundfiler;
#X obj 454 27 bng 37 250 50 0 empty empty empty 17 7 0 10 -262144 -1
-1;
#N canvas 0 0 450 300 (subpatch) 0;
#X array buffer1 124439 float 0 black black;
#X coords 0 1 124438 -1 200 140 1;
#X restore 31 324 graph;
#X msg 454 97 read -resize \$1 buffer1;
#X obj 454 386 tabread~ buffer1;
#X obj 454 324 *~ 80, f 14;
#X obj 454 441 *~;
#X obj 495 440 line~, f 6;
#X obj 446 476 dac~;
#X obj 562 386 vsl 16 75 0 1 0 0 empty empty empty 0 -9 0 10 -262144
-1 -1 0 1;
#X msg 495 414 \$1 50;
#X obj 38 10 tgl 34 0 empty empty empty 17 7 0 10 -262144 -1 -1 0 1
;
#X msg 38 53 \; pd dsp \$1;
#X floatatom 454 152 9 0 0 0 - - -, f 9;
#X floatatom 454 215 10 0 0 0 - - -, f 10;
#X obj 454 184 expr 44100/$f1;
#X text 38 91 broadcast DSP on/off msg to PD;
#X obj 243 446 s buffer1;
#X msg 243 424 normalize;
#X text 588 28 open file browser \; fill buffer1 with named file;
#X text 588 120 reports file length in samples;
#X floatatom 359 242 5 0 0 0 - - -, f 5;
#X text 588 183 samplerate/sampSize = freq (Hz);
#X obj 359 213 expr 1000/$f1;
#X text 300 242 dur (ms);
#X obj 535 300 - 1;
#X text 588 249 ramps from 0 to 1;
#X text 588 323 tabread~ needs ramp from 0 to \; total samples-1;
#X text 586 419 master volume;
#X connect 0 0 7 0;
#X connect 1 0 5 0;
#X connect 2 0 15 0;
#X connect 3 0 1 0;
#X connect 5 0 2 0;
#X connect 6 0 8 0;
#X connect 7 0 6 0;
#X connect 8 0 10 0;
#X connect 8 0 10 1;
#X connect 9 0 8 1;
#X connect 11 0 12 0;
#X connect 12 0 9 0;
#X connect 13 0 14 0;
#X connect 15 0 17 0;
#X connect 15 0 27 0;
#X connect 16 0 0 0;
#X connect 16 0 25 0;
#X connect 17 0 16 0;
#X connect 20 0 19 0;
#X connect 25 0 23 0;
#X connect 27 0 7 1;
