#N canvas 0 37 1600 790.062 10;
#X obj 29 143 openpanel;
#X obj 29 190 soundfiler;
#X obj 29 96 bng 37 250 50 0 empty empty empty 17 7 0 10 -262144 -1
-1;
#N canvas 0 0 450 300 (subpatch) 0;
#X array buffer1 125454 float 0 black black;
#X coords 0 1 125453 -1 163 75 1;
#X restore 29 431 graph;
#X msg 29 166 read -resize \$1 buffer1;
#X obj 451 405 *~;
#X obj 492 417 line~, f 6;
#X obj 443 428 dac~;
#X obj 566 363 vsl 16 75 0 1 0 0 empty empty empty 0 -9 0 10 -262144
-1 -1 7400 1;
#X msg 492 391 \$1 50;
#X obj 28 9 tgl 34 0 empty empty empty 17 7 0 10 -262144 -1 -1 1 1
;
#X msg 28 52 \; pd dsp \$1;
#X floatatom 29 214 9 0 0 0 - - -, f 9;
#X floatatom 29 258 10 0 0 0 - - -, f 10;
#X obj 29 235 expr 44100/$f1;
#X obj 208 488 s buffer1;
#X msg 208 466 normalize;
#X floatatom 29 308 5 0 0 0 - - -, f 5;
#X obj 29 283 expr 1000/$f1;
#X obj 676 189 expr $f1*44.1;
#X floatatom 676 212 6 0 0 0 - - -, f 6;
#X floatatom 875 67 5 0 5000 0 - - -, f 5;
#X obj 676 238 sig~;
#X obj 446 286 phasor~;
#X obj 446 163 *~;
#X obj 505 164 sig~ 1;
#X obj 446 240 expr~ 1000/$v1;
#X obj 551 240 expr~ ($v1*44.1)-1;
#X obj 446 263 *~, f 4;
#X floatatom 446 101 5 20 500 0 - - -, f 5;
#X floatatom 509 120 5 -5 5 0 - - -, f 5;
#X obj 509 142 sel 0;
#X obj 509 101 hsl 128 15 -5 5 0 0 empty empty empty -2 -8 0 10 -262144
-1 -1 7700 1;
#X floatatom 939 264 5 0 0 0 - - -, f 5;
#X text 447 84 dur;
#X text 590 84 pitch;
#X text 594 27 scrub;
#X text 938 241 blur;
#X obj 591 126 noise~;
#X obj 591 199 *~;
#X floatatom 697 101 5 0 500 0 - - -, f 5;
#X obj 505 184 +~;
#X text 693 84 pitch mod;
#X obj 697 122 * 0.01;
#X obj 591 174 lop~ 1;
#X obj 591 149 *~ 10;
#X obj 853 164 expr ($f1*0.015)-1.02;
#X obj 852 139 hsl 128 15 0 127 0 0 empty empty empty -2 -8 0 10 -262144
-1 -1 10050 1;
#X floatatom 853 189 5 0 0 0 - - -, f 5;
#X obj 853 212 sig~ -1.02;
#X text 902 122 grain muting;
#X msg 939 285 all \$1;
#X msg 388 317 all bang;
#X text 860 460 next \, we build a GUI in MobMuPlat;
#X obj 269 44 hsl 698 23 0 2844.76 0 0 empty empty empty -2 -8 0 10
-262144 -1 -1 34250 1;
#X msg 188 49 range 0 \$1;
#X obj 29 359 s filedur;
#X obj 188 26 r filedur;
#X obj 446 135 sig~ 100;
#X obj 452 315 clone monoGrainFixed 8;
#X obj 51 331 s init;
#X obj 388 262 r init;
#X obj 388 288 bng 25 250 50 0 empty empty empty 17 7 0 10 -262144
-1 -1;
#X connect 0 0 4 0;
#X connect 1 0 12 0;
#X connect 2 0 0 0;
#X connect 4 0 1 0;
#X connect 5 0 7 0;
#X connect 5 0 7 1;
#X connect 6 0 5 1;
#X connect 8 0 9 0;
#X connect 9 0 6 0;
#X connect 10 0 11 0;
#X connect 12 0 14 0;
#X connect 13 0 18 0;
#X connect 14 0 13 0;
#X connect 16 0 15 0;
#X connect 17 0 56 0;
#X connect 17 0 60 0;
#X connect 18 0 17 0;
#X connect 19 0 20 0;
#X connect 20 0 22 0;
#X connect 21 0 19 0;
#X connect 22 0 59 3;
#X connect 23 0 59 1;
#X connect 24 0 26 0;
#X connect 24 0 27 0;
#X connect 25 0 41 0;
#X connect 26 0 28 0;
#X connect 27 0 59 2;
#X connect 28 0 23 0;
#X connect 29 0 58 0;
#X connect 30 0 31 0;
#X connect 31 1 25 0;
#X connect 32 0 30 0;
#X connect 33 0 51 0;
#X connect 38 0 45 0;
#X connect 39 0 41 1;
#X connect 40 0 43 0;
#X connect 41 0 24 1;
#X connect 41 0 28 1;
#X connect 43 0 39 1;
#X connect 44 0 39 0;
#X connect 45 0 44 0;
#X connect 46 0 48 0;
#X connect 47 0 46 0;
#X connect 48 0 49 0;
#X connect 49 0 59 4;
#X connect 51 0 59 5;
#X connect 52 0 59 0;
#X connect 54 0 21 0;
#X connect 55 0 54 0;
#X connect 57 0 55 0;
#X connect 58 0 24 0;
#X connect 59 0 5 0;
#X connect 61 0 62 0;
#X connect 62 0 52 0;
