#N canvas 0 37 1600 790.062 10;
#X obj 407 141 phasor~ 12.5;
#X obj 133 55 openpanel;
#X obj 133 102 soundfiler;
#X obj 133 8 bng 37 250 50 0 empty empty empty 17 7 0 10 -262144 -1
-1;
#N canvas 0 0 450 300 (subpatch) 0;
#X array buffer1 124439 float 0 black black;
#X coords 0 1 124438 -1 200 140 1;
#X restore 31 324 graph;
#X msg 133 78 read -resize \$1 buffer1;
#X obj 407 252 tabread~ buffer1;
#X obj 407 307 *~;
#X obj 448 306 line~, f 6;
#X obj 399 342 dac~;
#X obj 515 252 vsl 16 75 0 1 0 0 empty empty empty 0 -9 0 10 -262144
-1 -1 0 1;
#X msg 448 280 \$1 50;
#X obj 38 10 tgl 34 0 empty empty empty 17 7 0 10 -262144 -1 -1 0 1
;
#X msg 38 53 \; pd dsp \$1;
#X floatatom 133 126 9 0 0 0 - - -, f 9;
#X floatatom 133 170 10 0 0 0 - - -, f 10;
#X obj 133 147 expr 44100/$f1;
#X obj 243 446 s buffer1;
#X msg 243 424 normalize;
#X floatatom 133 220 5 0 0 0 - - -, f 5;
#X obj 133 195 expr 1000/$f1;
#X obj 407 190 *~ 800, f 15;
#X msg 408 11 1000;
#X obj 407 69 expr 1000/$f1;
#X obj 496 69 expr $f1*44.1;
#X msg 472 11 500;
#X floatatom 496 119 6 0 0 0 - - -, f 6;
#X floatatom 407 119 5 0 0 0 - - -, f 5;
#X text 347 92 The 'read speed' and 'read length' determine pitch and
size;
#X floatatom 537 11 5 100 5000 0 - - -, f 5;
#X text 347 141 speed;
#X text 347 191 length;
#X connect 0 0 21 0;
#X connect 1 0 5 0;
#X connect 2 0 14 0;
#X connect 3 0 1 0;
#X connect 5 0 2 0;
#X connect 6 0 7 0;
#X connect 7 0 9 0;
#X connect 7 0 9 1;
#X connect 8 0 7 1;
#X connect 10 0 11 0;
#X connect 11 0 8 0;
#X connect 12 0 13 0;
#X connect 14 0 16 0;
#X connect 15 0 20 0;
#X connect 16 0 15 0;
#X connect 18 0 17 0;
#X connect 20 0 19 0;
#X connect 21 0 6 0;
#X connect 22 0 23 0;
#X connect 22 0 24 0;
#X connect 23 0 27 0;
#X connect 24 0 26 0;
#X connect 25 0 23 0;
#X connect 25 0 24 0;
#X connect 26 0 21 1;
#X connect 27 0 0 0;
#X connect 29 0 23 0;
#X connect 29 0 24 0;
