#N canvas 0 37 1600 790.062 10;
#X obj 133 55 openpanel;
#X obj 133 102 soundfiler;
#X obj 133 8 bng 37 250 50 0 empty empty empty 17 7 0 10 -262144 -1
-1;
#N canvas 0 0 450 300 (subpatch) 0;
#X array buffer1 125454 float 0 black black;
#X coords 0 1 125453 -1 200 140 1;
#X restore 31 324 graph;
#X msg 133 78 read -resize \$1 buffer1;
#X obj 524 294 tabread~ buffer1;
#X obj 504 416 *~;
#X obj 545 415 line~, f 6;
#X obj 496 451 dac~;
#X obj 612 361 vsl 16 75 0 1 0 0 empty empty empty 0 -9 0 10 -262144
-1 -1 0 1;
#X msg 545 389 \$1 50;
#X obj 38 10 tgl 34 0 empty empty empty 17 7 0 10 -262144 -1 -1 0 1
;
#X msg 38 53 \; pd dsp \$1;
#X floatatom 133 126 9 0 0 0 - - -, f 9;
#X floatatom 133 170 10 0 0 0 - - -, f 10;
#X obj 133 147 expr 44100/$f1;
#X obj 243 446 s buffer1;
#X msg 243 424 normalize;
#X floatatom 133 220 5 0 0 0 - - -, f 5;
#X obj 133 195 expr 1000/$f1;
#X obj 524 73 expr 1000/$f1;
#X obj 613 73 expr $f1*44.1;
#X floatatom 613 96 6 0 0 0 - - -, f 6;
#X floatatom 524 96 5 0 0 0 - - -, f 5;
#X floatatom 559 23 5 20 500 0 - - -, f 5;
#X obj 524 263 +~;
#X obj 695 134 expr $f1*44.1;
#X floatatom 695 157 6 0 0 0 - - -, f 6;
#X floatatom 695 109 5 100 5000 0 - - -, f 5;
#X obj 422 195 cos~;
#X obj 422 220 *~ 0.5;
#X obj 422 295 expr~ 1-$v1;
#X obj 422 245 +~ 0.5;
#X obj 422 270 *~;
#X obj 504 330 *~;
#X text 190 243 sample discontinuities are 'hidden' \; using a fat
cosine window/envelope;
#X obj 695 181 sig~;
#X obj 524 120 sig~ 5;
#X obj 524 145 phasor~;
#X obj 613 120 sig~ 8820;
#X text 606 23 slice dur (ms);
#X obj 539 209 samphold~;
#X obj 524 235 *~;
#X obj 695 206 samphold~;
#X text 739 108 slice start;
#X text 688 241 samphold~ will only pass incoming \; values at the
end of the phasor ramp;
#X text 884 24 slice dur changes TWO parameters;
#X text 884 47 only one of which uses S&H;
#X text 884 70 hence the pitch modulation;
#X text 886 95 which we will solve later;
#X connect 0 0 4 0;
#X connect 1 0 13 0;
#X connect 2 0 0 0;
#X connect 4 0 1 0;
#X connect 5 0 34 1;
#X connect 6 0 8 0;
#X connect 6 0 8 1;
#X connect 7 0 6 1;
#X connect 9 0 10 0;
#X connect 10 0 7 0;
#X connect 11 0 12 0;
#X connect 13 0 15 0;
#X connect 14 0 19 0;
#X connect 15 0 14 0;
#X connect 17 0 16 0;
#X connect 19 0 18 0;
#X connect 20 0 23 0;
#X connect 21 0 22 0;
#X connect 22 0 39 0;
#X connect 23 0 37 0;
#X connect 24 0 20 0;
#X connect 24 0 21 0;
#X connect 25 0 5 0;
#X connect 26 0 27 0;
#X connect 27 0 36 0;
#X connect 28 0 26 0;
#X connect 29 0 30 0;
#X connect 30 0 32 0;
#X connect 31 0 34 0;
#X connect 32 0 33 0;
#X connect 32 0 33 1;
#X connect 33 0 31 0;
#X connect 34 0 6 0;
#X connect 36 0 43 0;
#X connect 37 0 38 0;
#X connect 38 0 29 0;
#X connect 38 0 41 1;
#X connect 38 0 42 0;
#X connect 38 0 43 1;
#X connect 39 0 41 0;
#X connect 41 0 42 1;
#X connect 42 0 25 0;
#X connect 43 0 25 1;
