#N canvas 0 37 1600 790.062 10;
#X obj 133 55 openpanel;
#X obj 133 102 soundfiler;
#X obj 133 8 bng 37 250 50 0 empty empty empty 17 7 0 10 -262144 -1
-1;
#N canvas 0 0 450 300 (subpatch) 0;
#X array buffer1 125454 float 0 black black;
#X coords 0 1 125453 -1 200 140 1;
#X restore 31 324 graph;
#X msg 133 78 read -resize \$1 buffer1;
#X obj 515 356 tabread~ buffer1;
#X obj 574 481 *~;
#X obj 615 480 line~, f 6;
#X obj 566 516 dac~;
#X obj 673 431 vsl 16 75 0 1 0 0 empty empty empty 0 -9 0 10 -262144
-1 -1 0 1;
#X msg 615 454 \$1 50;
#X obj 38 10 tgl 34 0 empty empty empty 17 7 0 10 -262144 -1 -1 0 1
;
#X msg 38 53 \; pd dsp \$1;
#X floatatom 133 126 9 0 0 0 - - -, f 9;
#X floatatom 133 170 10 0 0 0 - - -, f 10;
#X obj 133 147 expr 44100/$f1;
#X obj 243 446 s buffer1;
#X msg 243 424 normalize;
#X floatatom 133 220 5 0 0 0 - - -, f 5;
#X obj 133 195 expr 1000/$f1;
#X obj 515 109 expr 1000/$f1;
#X obj 604 109 expr $f1*44.1;
#X floatatom 604 132 6 0 0 0 - - -, f 6;
#X floatatom 515 132 5 0 0 0 - - -, f 5;
#X floatatom 547 81 5 20 500 0 - - -, f 5;
#X obj 515 325 +~;
#X obj 698 156 expr $f1*44.1;
#X floatatom 698 179 6 0 0 0 - - -, f 6;
#X floatatom 698 131 5 100 5000 0 - - -, f 5;
#X obj 413 279 cos~;
#X obj 413 304 *~ 0.5;
#X obj 413 379 expr~ 1-$v1;
#X obj 413 329 +~ 0.5;
#X obj 413 354 *~;
#X obj 498 381 *~;
#X obj 698 203 sig~;
#X obj 515 156 sig~ 5;
#X obj 515 181 phasor~;
#X obj 604 156 sig~ 8820;
#X obj 530 271 samphold~;
#X obj 515 297 *~;
#X obj 698 271 samphold~;
#X text 302 4 This patch is for descriptive purposes only;
#X text 302 29 to demonstrate how we 'hide' amplitude modulation;
#X text 302 54 'buzzing' \, by mirroring the grain window 50% out of
phase;
#X obj 830 178 +~ 0.5;
#X obj 830 203 wrap~;
#X obj 399 233 cnv 15 404 15 empty empty empty 20 12 0 14 -213477 -66577
0;
#X text 880 201 0.5 = 1/0 and 1 = 0.5;
#X text 880 176 When phasor1 = 0 \, phasor2 = 0.5;
#X text 830 227 everything between purple lines is duplicated;
#X obj 398 412 cnv 15 407 15 empty empty empty 20 12 0 14 -213477 -66577
0;
#X connect 0 0 4 0;
#X connect 1 0 13 0;
#X connect 2 0 0 0;
#X connect 4 0 1 0;
#X connect 5 0 34 1;
#X connect 6 0 8 0;
#X connect 6 0 8 1;
#X connect 7 0 6 1;
#X connect 9 0 10 0;
#X connect 10 0 7 0;
#X connect 11 0 12 0;
#X connect 13 0 15 0;
#X connect 14 0 19 0;
#X connect 15 0 14 0;
#X connect 17 0 16 0;
#X connect 19 0 18 0;
#X connect 20 0 23 0;
#X connect 21 0 22 0;
#X connect 22 0 38 0;
#X connect 23 0 36 0;
#X connect 24 0 20 0;
#X connect 24 0 21 0;
#X connect 25 0 5 0;
#X connect 26 0 27 0;
#X connect 27 0 35 0;
#X connect 28 0 26 0;
#X connect 29 0 30 0;
#X connect 30 0 32 0;
#X connect 31 0 34 0;
#X connect 32 0 33 0;
#X connect 32 0 33 1;
#X connect 33 0 31 0;
#X connect 34 0 6 0;
#X connect 35 0 41 0;
#X connect 36 0 37 0;
#X connect 37 0 29 0;
#X connect 37 0 39 1;
#X connect 37 0 40 0;
#X connect 37 0 41 1;
#X connect 37 0 45 0;
#X connect 38 0 39 0;
#X connect 39 0 40 1;
#X connect 40 0 25 0;
#X connect 41 0 25 1;
#X connect 45 0 46 0;
