#N canvas 0 37 1600 790.062 10;
#X obj 123 54 openpanel;
#X obj 123 101 soundfiler;
#X obj 123 7 bng 37 250 50 0 empty empty empty 17 7 0 10 -262144 -1
-1;
#N canvas 0 0 450 300 (subpatch) 0;
#X array buffer1 125454 float 0 black black;
#X coords 0 1 125453 -1 200 140 1;
#X restore 21 323 graph;
#X msg 123 77 read -resize \$1 buffer1;
#X obj 623 356 tabread~ buffer1;
#X obj 587 459 *~;
#X obj 628 458 line~, f 6;
#X obj 579 494 dac~;
#X obj 686 409 vsl 16 75 0 1 0 0 empty empty empty 0 -9 0 10 -262144
-1 -1 3600 1;
#X msg 628 432 \$1 50;
#X obj 28 9 tgl 34 0 empty empty empty 17 7 0 10 -262144 -1 -1 1 1
;
#X msg 28 52 \; pd dsp \$1;
#X floatatom 123 125 9 0 0 0 - - -, f 9;
#X floatatom 123 169 10 0 0 0 - - -, f 10;
#X obj 123 146 expr 44100/$f1;
#X obj 239 441 s buffer1;
#X msg 239 419 normalize;
#X floatatom 123 219 5 0 0 0 - - -, f 5;
#X obj 123 194 expr 1000/$f1;
#X obj 623 325 +~;
#X obj 873 180 expr $f1*44.1;
#X floatatom 873 203 6 0 0 0 - - -, f 6;
#X floatatom 873 155 5 0 5000 0 - - -, f 5;
#X obj 521 279 cos~;
#X obj 521 304 *~ 0.5;
#X obj 521 379 expr~ 1-$v1;
#X obj 521 329 +~ 0.5;
#X obj 521 354 *~;
#X obj 587 419 *~;
#X obj 873 227 sig~;
#X obj 623 181 phasor~;
#X obj 658 265 samphold~;
#X obj 623 297 *~;
#X obj 726 263 samphold~;
#X text 298 57 Grain pitch is dependent upon phasor frequency;
#X text 298 77 but changing that value alone will alter grain length.
;
#X text 298 95 So we should vary frequency and duration \,;
#X text 298 115 then re-scale frequency by pitch factor > > > > >;
#X obj 673 56 sig~ 500;
#X obj 673 84 *~;
#X obj 770 76 sig~ 1;
#X obj 623 119 expr~ 1000/$v1;
#X obj 728 117 expr~ ($v1*44.1)-1;
#X obj 623 144 *~, f 4;
#X floatatom 672 29 5 20 500 0 - - -, f 5;
#X floatatom 774 32 5 -5 5 0 - - -, f 5;
#X obj 774 54 sel 0;
#X text 821 53 ignore pitch = 0;
#X obj 735 12 hsl 128 15 -5 5 0 0 empty empty empty -2 -8 0 10 -262144
-1 -1 7700 1;
#X text 762 404 This is our 'base' functionality \,;
#X text 762 424 next we'll add some offset noise \, muting and;
#X text 762 442 pitch modulation \, before making it polyphonic;
#X connect 0 0 4 0;
#X connect 1 0 13 0;
#X connect 2 0 0 0;
#X connect 4 0 1 0;
#X connect 5 0 29 1;
#X connect 6 0 8 0;
#X connect 6 0 8 1;
#X connect 7 0 6 1;
#X connect 9 0 10 0;
#X connect 10 0 7 0;
#X connect 11 0 12 0;
#X connect 13 0 15 0;
#X connect 14 0 19 0;
#X connect 15 0 14 0;
#X connect 17 0 16 0;
#X connect 19 0 18 0;
#X connect 20 0 5 0;
#X connect 21 0 22 0;
#X connect 22 0 30 0;
#X connect 23 0 21 0;
#X connect 24 0 25 0;
#X connect 25 0 27 0;
#X connect 26 0 29 0;
#X connect 27 0 28 0;
#X connect 27 0 28 1;
#X connect 28 0 26 0;
#X connect 29 0 6 0;
#X connect 30 0 34 0;
#X connect 31 0 24 0;
#X connect 31 0 32 1;
#X connect 31 0 33 0;
#X connect 31 0 34 1;
#X connect 32 0 33 1;
#X connect 33 0 20 0;
#X connect 34 0 20 1;
#X connect 39 0 40 0;
#X connect 40 0 42 0;
#X connect 40 0 43 0;
#X connect 41 0 40 1;
#X connect 41 0 44 1;
#X connect 42 0 44 0;
#X connect 43 0 32 0;
#X connect 44 0 31 0;
#X connect 45 0 39 0;
#X connect 46 0 47 0;
#X connect 47 1 41 0;
#X connect 49 0 46 0;
