#N canvas 0 37 1600 790.062 10;
#X obj 638 214 cnv 15 43 32 empty empty empty 20 12 0 14 -57815 -66577
0;
#X obj 123 54 openpanel;
#X obj 123 101 soundfiler;
#X obj 123 7 bng 37 250 50 0 empty empty empty 17 7 0 10 -262144 -1
-1;
#N canvas 0 0 450 300 (subpatch) 0;
#X array buffer1 125454 float 0 black black;
#X coords 0 1 125453 -1 163 75 1;
#X restore 29 431 graph;
#X msg 123 77 read -resize \$1 buffer1;
#X obj 485 363 tabread~ buffer1;
#X obj 449 478 *~;
#X obj 490 490 line~, f 6;
#X obj 441 501 dac~;
#X obj 548 441 vsl 16 75 0 1 0 0 empty empty empty 0 -9 0 10 -262144
-1 -1 4900 1;
#X msg 490 464 \$1 50;
#X obj 28 9 tgl 34 0 empty empty empty 17 7 0 10 -262144 -1 -1 1 1
;
#X msg 28 52 \; pd dsp \$1;
#X floatatom 123 125 9 0 0 0 - - -, f 9;
#X floatatom 123 169 10 0 0 0 - - -, f 10;
#X obj 123 146 expr 44100/$f1;
#X obj 208 488 s buffer1;
#X msg 208 466 normalize;
#X floatatom 123 219 5 0 0 0 - - -, f 5;
#X obj 123 194 expr 1000/$f1;
#X obj 485 332 +~;
#X obj 876 103 expr $f1*44.1;
#X floatatom 876 126 6 0 0 0 - - -, f 6;
#X floatatom 876 35 5 0 5000 0 - - -, f 5;
#X obj 383 308 cos~;
#X obj 383 333 *~ 0.5;
#X obj 383 408 expr~ 1-$v1;
#X obj 383 358 +~ 0.5;
#X obj 383 383 *~;
#X obj 449 448 *~;
#X obj 876 152 sig~;
#X obj 485 231 phasor~;
#X obj 507 281 samphold~;
#X obj 485 304 *~;
#X obj 575 281 samphold~;
#X obj 486 81 sig~ 500;
#X obj 486 109 *~;
#X obj 583 101 sig~ 1;
#X obj 485 180 expr~ 1000/$v1;
#X obj 590 180 expr~ ($v1*44.1)-1;
#X obj 485 205 *~, f 4;
#X floatatom 486 37 5 20 500 0 - - -, f 5;
#X floatatom 587 57 5 -5 5 0 - - -, f 5;
#X obj 587 79 sel 0;
#X obj 548 37 hsl 128 15 -5 5 0 0 empty empty empty -2 -8 0 10 -262144
-1 -1 7700 1;
#X obj 314 68 noise~;
#X obj 314 93 *~ 30;
#X obj 314 118 lop~ 2;
#X text 295 30 LFN \; low frequency noise;
#X obj 944 152 noise~;
#X obj 944 175 *~ 30;
#X obj 944 200 lop~ 2;
#X obj 944 225 *~;
#X floatatom 1015 152 5 0 500 0 - - -, f 5;
#X obj 1015 181 *;
#X floatatom 1013 36 5 0 0 0 - - -, f 5;
#X obj 646 221 +~;
#X text 487 9 dur;
#X text 591 9 pitch;
#X text 878 9 scrub;
#X text 1009 9 blur;
#X obj 724 36 noise~;
#X obj 724 109 *~;
#X floatatom 795 36 5 0 500 0 - - -, f 5;
#X obj 575 124 cnv 15 43 32 empty empty empty 20 12 0 14 -57815 -66577
0;
#X obj 583 131 +~;
#X text 791 9 pitch mod;
#X obj 795 60 * 0.01;
#X obj 724 84 lop~ 1;
#X obj 724 59 *~ 10;
#X obj 189 293 expr ($f1*0.015)-1.02;
#X obj 188 268 hsl 128 15 0 127 0 0 empty empty empty -2 -8 0 10 -262144
-1 -1 0 1;
#X floatatom 189 318 5 0 0 0 - - -, f 5;
#X text 78 287 scale 0 - 127 to \; -1.02 - 0.8;
#X obj 381 181 noise~;
#X obj 381 205 expr~ $v1>$v2;
#X obj 189 341 sig~ -1.02;
#X obj 381 233 samphold~;
#X obj 371 265 cnv 15 43 32 empty empty empty 20 12 0 14 -57815 -66577
0;
#X obj 383 271 *~;
#X text 238 246 grain muting;
#X text 691 305 Using a low frequency noise oscillator;
#X text 690 328 we add pitch modulation \, offset (scrub) blurring
;
#X text 691 355 and grain muting.;
#X text 693 401 In the next patch I will demonstrate polyphony and
window overlapping, f 38;
#X connect 1 0 5 0;
#X connect 2 0 14 0;
#X connect 3 0 1 0;
#X connect 5 0 2 0;
#X connect 6 0 30 1;
#X connect 7 0 9 0;
#X connect 7 0 9 1;
#X connect 8 0 7 1;
#X connect 10 0 11 0;
#X connect 11 0 8 0;
#X connect 12 0 13 0;
#X connect 14 0 16 0;
#X connect 15 0 20 0;
#X connect 16 0 15 0;
#X connect 18 0 17 0;
#X connect 20 0 19 0;
#X connect 21 0 6 0;
#X connect 22 0 23 0;
#X connect 23 0 31 0;
#X connect 24 0 22 0;
#X connect 25 0 26 0;
#X connect 26 0 28 0;
#X connect 27 0 30 0;
#X connect 28 0 29 0;
#X connect 28 0 29 1;
#X connect 29 0 27 0;
#X connect 30 0 7 0;
#X connect 31 0 57 0;
#X connect 32 0 33 1;
#X connect 32 0 34 0;
#X connect 32 0 35 1;
#X connect 32 0 78 1;
#X connect 32 0 80 0;
#X connect 33 0 34 1;
#X connect 34 0 21 0;
#X connect 35 0 21 1;
#X connect 36 0 37 0;
#X connect 37 0 39 0;
#X connect 37 0 40 0;
#X connect 38 0 66 0;
#X connect 39 0 41 0;
#X connect 40 0 33 0;
#X connect 41 0 32 0;
#X connect 42 0 36 0;
#X connect 43 0 44 0;
#X connect 44 1 38 0;
#X connect 45 0 43 0;
#X connect 46 0 47 0;
#X connect 47 0 48 0;
#X connect 50 0 51 0;
#X connect 51 0 52 0;
#X connect 52 0 53 0;
#X connect 53 0 57 1;
#X connect 54 0 55 0;
#X connect 54 0 55 1;
#X connect 55 0 53 1;
#X connect 56 0 54 0;
#X connect 57 0 35 0;
#X connect 62 0 70 0;
#X connect 63 0 66 1;
#X connect 64 0 68 0;
#X connect 66 0 37 1;
#X connect 66 0 41 1;
#X connect 68 0 63 1;
#X connect 69 0 63 0;
#X connect 70 0 69 0;
#X connect 71 0 73 0;
#X connect 72 0 71 0;
#X connect 73 0 77 0;
#X connect 75 0 76 0;
#X connect 76 0 78 0;
#X connect 77 0 76 1;
#X connect 78 0 80 1;
#X connect 80 0 25 0;
