#N canvas 0 37 1600 790.062 10;
#X obj 29 143 openpanel;
#X obj 29 190 soundfiler;
#X obj 29 96 bng 37 250 50 0 empty empty empty 17 7 0 10 -262144 -1
-1;
#N canvas 0 0 450 300 (subpatch) 0;
#X array buffer1 125454 float 0 black black;
#X coords 0 1 125453 -1 163 75 1;
#X restore 29 431 graph;
#X msg 29 166 read -resize \$1 buffer1;
#X obj 485 419 tabread~ buffer1;
#X obj 889 499 *~;
#X obj 930 511 line~, f 6;
#X obj 881 522 dac~;
#X obj 1036 432 vsl 16 75 0 1 0 0 empty empty empty 0 -9 0 10 -262144
-1 -1 0 1;
#X msg 930 485 \$1 50;
#X obj 28 9 tgl 34 0 empty empty empty 17 7 0 10 -262144 -1 -1 0 1
;
#X msg 28 52 \; pd dsp \$1;
#X floatatom 29 214 9 0 0 0 - - -, f 9;
#X floatatom 29 258 10 0 0 0 - - -, f 10;
#X obj 29 235 expr 44100/$f1;
#X obj 208 488 s buffer1;
#X msg 208 466 normalize;
#X floatatom 29 308 5 0 0 0 - - -, f 5;
#X obj 29 283 expr 1000/$f1;
#X obj 485 388 +~;
#X obj 876 63 expr $f1*44.1;
#X floatatom 876 86 6 0 0 0 - - -, f 6;
#X floatatom 876 35 5 0 5000 0 - - -, f 5;
#X obj 289 349 cos~;
#X obj 289 374 *~ 0.5;
#X obj 289 449 expr~ 1-$v1;
#X obj 289 399 +~ 0.5;
#X obj 289 424 *~;
#X obj 470 443 *~;
#X obj 876 112 sig~;
#X obj 485 194 phasor~;
#X obj 507 337 samphold~;
#X obj 485 360 *~;
#X obj 575 337 samphold~;
#X obj 486 58 sig~ 500;
#X obj 486 86 *~;
#X obj 544 101 sig~ 1;
#X obj 485 148 expr~ 1000/$v1;
#X obj 590 148 expr~ ($v1*44.1)-1;
#X obj 485 171 *~, f 4;
#X floatatom 486 37 5 20 500 0 - - -, f 5;
#X floatatom 548 57 5 -5 5 0 - - -, f 5;
#X obj 548 79 sel 0;
#X obj 548 37 hsl 128 15 -5 5 0 0 empty empty empty -2 -8 0 10 -262144
-1 -1 0 1;
#X obj 718 239 noise~;
#X obj 718 262 *~ 30;
#X obj 718 287 lop~ 2;
#X obj 718 312 *~;
#X floatatom 789 239 5 0 500 0 - - -, f 5;
#X obj 789 268 *;
#X floatatom 1013 36 5 0 0 0 - - -, f 5;
#X obj 575 296 +~;
#X text 487 9 dur;
#X text 591 9 pitch;
#X text 878 9 scrub;
#X text 1009 9 blur;
#X obj 724 36 noise~;
#X obj 724 109 *~;
#X floatatom 795 36 5 0 500 0 - - -, f 5;
#X obj 544 121 +~;
#X text 791 9 pitch mod;
#X obj 795 60 * 0.01;
#X obj 724 84 lop~ 1;
#X obj 724 59 *~ 10;
#X obj 288 62 expr ($f1*0.015)-1.02;
#X obj 287 37 hsl 128 15 0 127 0 0 empty empty empty -2 -8 0 10 -262144
-1 -1 0 1;
#X floatatom 288 87 5 0 0 0 - - -, f 5;
#X obj 287 245 noise~;
#X obj 287 269 expr~ $v1>$v2;
#X obj 288 110 sig~ -1.02;
#X obj 287 297 samphold~;
#X obj 289 324 *~;
#X text 337 15 grain muting;
#X text 842 279 Step 1 \; add phase offset to phasor;
#X text 842 309 and reconnect to all 5 objects;
#X obj 476 255 cnv 15 55 57 empty empty empty 20 12 0 14 -46413 -66577
0;
#X obj 485 259 +~;
#X obj 485 284 wrap~;
#X text 844 328 Step 2 \; isolate internal/external objects;
#X text 844 358 i.e. inside/outside [clone] object;
#X obj 280 218 cnv 15 610 16 empty empty empty 20 12 0 14 -46413 -66577
0;
#X obj 282 474 cnv 15 610 16 empty empty empty 20 12 0 14 -46413 -66577
0;
#X connect 0 0 4 0;
#X connect 1 0 13 0;
#X connect 2 0 0 0;
#X connect 4 0 1 0;
#X connect 5 0 29 1;
#X connect 6 0 8 0;
#X connect 6 0 8 1;
#X connect 7 0 6 1;
#X connect 9 0 10 0;
#X connect 10 0 7 0;
#X connect 11 0 12 0;
#X connect 13 0 15 0;
#X connect 14 0 19 0;
#X connect 15 0 14 0;
#X connect 17 0 16 0;
#X connect 19 0 18 0;
#X connect 20 0 5 0;
#X connect 21 0 22 0;
#X connect 22 0 30 0;
#X connect 23 0 21 0;
#X connect 24 0 25 0;
#X connect 25 0 27 0;
#X connect 26 0 29 0;
#X connect 27 0 28 0;
#X connect 27 0 28 1;
#X connect 28 0 26 0;
#X connect 29 0 6 0;
#X connect 30 0 52 0;
#X connect 31 0 77 0;
#X connect 32 0 33 1;
#X connect 33 0 20 0;
#X connect 34 0 20 1;
#X connect 35 0 36 0;
#X connect 36 0 38 0;
#X connect 36 0 39 0;
#X connect 37 0 60 0;
#X connect 38 0 40 0;
#X connect 39 0 32 0;
#X connect 40 0 31 0;
#X connect 41 0 35 0;
#X connect 42 0 43 0;
#X connect 43 1 37 0;
#X connect 44 0 42 0;
#X connect 45 0 46 0;
#X connect 46 0 47 0;
#X connect 47 0 48 0;
#X connect 48 0 52 1;
#X connect 49 0 50 0;
#X connect 49 0 50 1;
#X connect 50 0 48 1;
#X connect 51 0 49 0;
#X connect 52 0 34 0;
#X connect 57 0 64 0;
#X connect 58 0 60 1;
#X connect 59 0 62 0;
#X connect 60 0 36 1;
#X connect 60 0 40 1;
#X connect 62 0 58 1;
#X connect 63 0 58 0;
#X connect 64 0 63 0;
#X connect 65 0 67 0;
#X connect 66 0 65 0;
#X connect 67 0 70 0;
#X connect 68 0 69 0;
#X connect 69 0 71 0;
#X connect 70 0 69 1;
#X connect 71 0 72 1;
#X connect 72 0 24 0;
#X connect 77 0 78 0;
#X connect 78 0 71 1;
#X connect 78 0 72 0;
#X connect 78 0 33 0;
#X connect 78 0 32 1;
#X connect 78 0 34 1;
