#N canvas 0 37 1600 790.062 10;
#X obj 29 143 openpanel;
#X obj 29 190 soundfiler;
#X obj 29 96 bng 37 250 50 0 empty empty empty 17 7 0 10 -262144 -1
-1;
#N canvas 0 0 450 300 (subpatch) 0;
#X array buffer1 125454 float 0 black black;
#X coords 0 1 125453 -1 163 75 1;
#X restore 29 431 graph;
#X msg 29 166 read -resize \$1 buffer1;
#X obj 905 499 *~;
#X obj 946 511 line~, f 6;
#X obj 897 522 dac~;
#X obj 1052 432 vsl 16 75 0 1 0 0 empty empty empty 0 -9 0 10 -262144
-1 -1 900 1;
#X msg 946 485 \$1 50;
#X obj 28 9 tgl 34 0 empty empty empty 17 7 0 10 -262144 -1 -1 1 1
;
#X msg 28 52 \; pd dsp \$1;
#X floatatom 29 214 9 0 0 0 - - -, f 9;
#X floatatom 29 258 10 0 0 0 - - -, f 10;
#X obj 29 235 expr 44100/$f1;
#X obj 208 488 s buffer1;
#X msg 208 466 normalize;
#X floatatom 29 308 5 0 0 0 - - -, f 5;
#X obj 29 283 expr 1000/$f1;
#X obj 876 63 expr $f1*44.1;
#X floatatom 876 86 6 0 0 0 - - -, f 6;
#X floatatom 876 35 5 0 5000 0 - - -, f 5;
#X obj 876 112 sig~;
#X obj 485 194 phasor~;
#X obj 486 58 sig~ 500;
#X obj 486 86 *~;
#X obj 544 101 sig~ 1;
#X obj 485 148 expr~ 1000/$v1;
#X obj 590 148 expr~ ($v1*44.1)-1;
#X obj 485 171 *~, f 4;
#X floatatom 486 37 5 20 500 0 - - -, f 5;
#X floatatom 548 57 5 -5 5 0 - - -, f 5;
#X obj 548 79 sel 0;
#X obj 548 37 hsl 128 15 -5 5 0 0 empty empty empty -2 -8 0 10 -262144
-1 -1 7600 1;
#X floatatom 974 68 5 0 0 0 - - -, f 5;
#X text 487 9 dur;
#X text 591 9 pitch;
#X text 878 9 scrub;
#X text 970 41 blur;
#X obj 724 36 noise~;
#X obj 724 109 *~;
#X floatatom 795 36 5 0 500 0 - - -, f 5;
#X obj 544 121 +~;
#X text 791 9 pitch mod;
#X obj 795 60 * 0.01;
#X obj 724 84 lop~ 1;
#X obj 724 59 *~ 10;
#X obj 282 60 expr ($f1*0.015)-1.02;
#X obj 281 35 hsl 128 15 0 127 0 0 empty empty empty -2 -8 0 10 -262144
-1 -1 0 1;
#X floatatom 282 85 5 0 0 0 - - -, f 5;
#X obj 282 108 sig~ -1.02;
#X text 331 13 grain muting;
#X obj 280 218 cnv 15 610 16 empty empty empty 20 12 0 14 -46413 -66577
0;
#X obj 282 474 cnv 15 610 16 empty empty empty 20 12 0 14 -46413 -66577
0;
#X obj 451 313 clone monoGrain4clone 4;
#X text 660 299 everything that was here \, is now contained in the
named [clone] object \; take care with your connections, f 40;
#X msg 974 101 all \$1;
#X text 928 123 control messages must be formatted correctly, f 28
;
#X connect 0 0 4 0;
#X connect 1 0 12 0;
#X connect 2 0 0 0;
#X connect 4 0 1 0;
#X connect 5 0 7 0;
#X connect 5 0 7 1;
#X connect 6 0 5 1;
#X connect 8 0 9 0;
#X connect 9 0 6 0;
#X connect 10 0 11 0;
#X connect 12 0 14 0;
#X connect 13 0 18 0;
#X connect 14 0 13 0;
#X connect 16 0 15 0;
#X connect 18 0 17 0;
#X connect 19 0 20 0;
#X connect 20 0 22 0;
#X connect 21 0 19 0;
#X connect 22 0 54 2;
#X connect 23 0 54 0;
#X connect 24 0 25 0;
#X connect 25 0 27 0;
#X connect 25 0 28 0;
#X connect 26 0 42 0;
#X connect 27 0 29 0;
#X connect 28 0 54 1;
#X connect 29 0 23 0;
#X connect 30 0 24 0;
#X connect 31 0 32 0;
#X connect 32 1 26 0;
#X connect 33 0 31 0;
#X connect 34 0 56 0;
#X connect 39 0 46 0;
#X connect 40 0 42 1;
#X connect 41 0 44 0;
#X connect 42 0 25 1;
#X connect 42 0 29 1;
#X connect 44 0 40 1;
#X connect 45 0 40 0;
#X connect 46 0 45 0;
#X connect 47 0 49 0;
#X connect 48 0 47 0;
#X connect 49 0 50 0;
#X connect 50 0 54 3;
#X connect 54 0 5 0;
#X connect 56 0 54 4;
