#N canvas 0 37 1600 790.062 12;
#X text 12 7 make a new patch \, save it in the same location as the
'master' patch and all other associated patches/files;
#X text 12 76 how many signal and control inlets are needed?;
#X obj 440 59 inlet~;
#X obj 725 56 inlet~;
#X obj 616 56 inlet~;
#X obj 822 54 inlet~;
#X obj 908 53 inlet;
#X text 15 125 in this case - 4 * [inlet~] and 1 * [inlet] \, plus
1 * [outlet~] \, and name them, f 45;
#X text 441 27 phasor;
#X text 617 27 size;
#X text 725 28 scrub;
#X text 822 29 mute;
#X text 908 25 blur;
#X text 19 217 then copy/paste the isolated objects destined for the
[clone] object and connect them to inlets and outlets, f 45;
#X obj 629 403 tabread~ buffer1;
#X obj 629 372 +~;
#X obj 406 318 cos~;
#X obj 406 343 *~ 0.5;
#X obj 406 418 expr~ 1-$v1;
#X obj 406 368 +~ 0.5;
#X obj 406 393 *~;
#X obj 611 456 *~;
#X obj 651 304 samphold~;
#X obj 629 344 *~;
#X obj 719 304 samphold~;
#X obj 862 206 noise~;
#X obj 862 229 *~ 30;
#X obj 862 254 lop~ 2;
#X obj 862 279 *~;
#X floatatom 933 206 5 0 500 0 - - -, f 5;
#X obj 933 235 *;
#X obj 719 263 +~;
#X obj 431 212 noise~;
#X obj 431 236 expr~ $v1>$v2;
#X obj 431 264 samphold~;
#X obj 406 293 *~;
#X obj 431 95 cnv 15 55 57 empty empty empty 20 12 0 14 -46413 -66577
0;
#X obj 440 99 +~;
#X obj 440 124 wrap~;
#X obj 611 485 outlet~;
#X connect 2 0 37 0;
#X connect 3 0 31 0;
#X connect 4 0 22 0;
#X connect 5 0 33 1;
#X connect 6 0 29 0;
#X connect 14 0 21 1;
#X connect 15 0 14 0;
#X connect 16 0 17 0;
#X connect 17 0 19 0;
#X connect 18 0 21 0;
#X connect 19 0 20 0;
#X connect 19 0 20 1;
#X connect 20 0 18 0;
#X connect 21 0 39 0;
#X connect 22 0 23 1;
#X connect 23 0 15 0;
#X connect 24 0 15 1;
#X connect 25 0 26 0;
#X connect 26 0 27 0;
#X connect 27 0 28 0;
#X connect 28 0 31 1;
#X connect 29 0 30 0;
#X connect 29 0 30 1;
#X connect 30 0 28 1;
#X connect 31 0 24 0;
#X connect 32 0 33 0;
#X connect 33 0 34 0;
#X connect 34 0 35 1;
#X connect 35 0 16 0;
#X connect 37 0 38 0;
#X connect 38 0 34 1;
#X connect 38 0 35 0;
#X connect 38 0 23 0;
#X connect 38 0 22 1;
#X connect 38 0 24 1;
