#N canvas 0 37 1600 790.062 12;
#X obj 440 59 inlet~;
#X obj 725 56 inlet~;
#X obj 616 56 inlet~;
#X obj 822 54 inlet~;
#X obj 908 53 inlet;
#X text 441 27 phasor;
#X text 617 27 size;
#X text 725 28 scrub;
#X text 822 29 mute;
#X text 908 25 blur;
#X obj 629 403 tabread~ buffer1;
#X obj 629 372 +~;
#X obj 403 293 cos~;
#X obj 403 318 *~ 0.5;
#X obj 403 393 expr~ 1-$v1;
#X obj 403 343 +~ 0.5;
#X obj 403 368 *~;
#X obj 611 456 *~;
#X obj 651 304 samphold~;
#X obj 629 344 *~;
#X obj 719 304 samphold~;
#X obj 862 206 noise~;
#X obj 862 229 *~ 30;
#X obj 862 254 lop~ 2;
#X obj 862 279 *~;
#X floatatom 933 206 5 0 500 0 - - -, f 5;
#X obj 933 235 *;
#X obj 719 263 +~;
#X obj 428 187 noise~;
#X obj 428 211 expr~ $v1>$v2;
#X obj 428 239 samphold~;
#X obj 403 268 *~;
#X obj 431 95 cnv 15 55 57 empty empty empty 20 12 0 14 -46413 -66577
0;
#X obj 440 99 +~;
#X obj 440 124 wrap~;
#X obj 611 515 outlet~;
#X obj 264 30 loadbang;
#X obj 264 56 bng 28 250 50 0 empty empty empty 17 7 0 10 -262144 -1
-1;
#X floatatom 264 127 5 0 0 0 - - -, f 5;
#X obj 264 155 s vv;
#X obj 212 184 r vv;
#X obj 212 213 max 0;
#X floatatom 212 242 5 0 0 0 - - -, f 5;
#X floatatom 266 390 5 0 0 0 - - -, f 5;
#X obj 264 98 float \$1;
#X text 50 98 reports voice instance number;
#X text 71 253 reports total number of voices, f 18;
#X obj 266 424 sig~;
#X obj 335 127 sig~;
#X obj 199 30 inlet;
#X text 38 5 loadbang only works when main patch is reopened;
#X obj 212 297 expr 1/$f1;
#X obj 611 484 *~;
#X text 159 329 1 / totalVoices = max ampl;
#X obj 212 270 + 1;
#X floatatom 335 97 5 0 0 0 - - -, f 5;
#X obj 335 68 expr $f1/8;
#X connect 0 0 33 0;
#X connect 1 0 27 0;
#X connect 2 0 18 0;
#X connect 3 0 29 1;
#X connect 4 0 25 0;
#X connect 10 0 17 1;
#X connect 11 0 10 0;
#X connect 12 0 13 0;
#X connect 13 0 15 0;
#X connect 14 0 17 0;
#X connect 15 0 16 0;
#X connect 15 0 16 1;
#X connect 16 0 14 0;
#X connect 17 0 52 0;
#X connect 18 0 19 1;
#X connect 19 0 11 0;
#X connect 20 0 11 1;
#X connect 21 0 22 0;
#X connect 22 0 23 0;
#X connect 23 0 24 0;
#X connect 24 0 27 1;
#X connect 25 0 26 0;
#X connect 25 0 26 1;
#X connect 26 0 24 1;
#X connect 27 0 20 0;
#X connect 28 0 29 0;
#X connect 29 0 30 0;
#X connect 30 0 31 1;
#X connect 31 0 12 0;
#X connect 33 0 34 0;
#X connect 34 0 30 1;
#X connect 34 0 31 0;
#X connect 34 0 19 0;
#X connect 34 0 18 1;
#X connect 34 0 20 1;
#X connect 36 0 37 0;
#X connect 37 0 44 0;
#X connect 38 0 39 0;
#X connect 38 0 56 0;
#X connect 40 0 41 0;
#X connect 41 0 42 0;
#X connect 42 0 54 0;
#X connect 43 0 47 0;
#X connect 44 0 38 0;
#X connect 47 0 52 1;
#X connect 48 0 33 1;
#X connect 49 0 37 0;
#X connect 51 0 43 0;
#X connect 52 0 35 0;
#X connect 54 0 51 0;
#X connect 55 0 48 0;
#X connect 56 0 55 0;
